<?xml version="1.0" encoding="UTF-8"?>
<svg width="16px" height="17px" viewBox="0 0 16 17" version="1.1" xmlns="http://www.w3.org/2000/svg" xmlns:xlink="http://www.w3.org/1999/xlink">
    <title>ic_download</title>
    <g id="ic_download" stroke="none" stroke-width="1" fill="none" fill-rule="evenodd">
        <g transform="translate(0.000000, 1.000000)" fill="#292929" fill-rule="nonzero" id="Path">
            <path d="M7.4147931,12.4472414 C7.56999685,12.6024531 7.7805031,12.6896508 8,12.6896508 C8.2194969,12.6896508 8.43000315,12.6024531 8.5852069,12.4472414 L11.7062069,9.32624138 C12.0293965,9.00304936 12.0293965,8.47905409 11.7062069,8.15586207 C11.3830149,7.83267244 10.8590196,7.83267244 10.5358276,8.15586207 L8.82758621,9.86410345 L8.82758621,0.827586207 C8.82758621,0.370522966 8.45706324,-1.77635684e-15 8,-1.77635684e-15 C7.54293676,-1.77635684e-15 7.17241379,0.370522966 7.17241379,0.827586207 L7.17241379,9.86410345 L5.46417241,8.15586207 C5.14098039,7.83267244 4.61698513,7.83267244 4.2937931,8.15586207 C3.97060347,8.47905409 3.97060347,9.00304936 4.2937931,9.32624138 L7.4147931,12.4472414 Z"></path>
            <path d="M15.1724138,7.17241379 C14.7153506,7.17241379 14.3448276,7.54293676 14.3448276,8 L14.3448276,14.3448276 L1.65517241,14.3448276 L1.65517241,8 C1.65517241,7.54293676 1.28464945,7.17241379 0.827586207,7.17241379 C0.370522966,7.17241379 0,7.54293676 0,8 L0,14.6206897 C0,15.3824617 0.617538276,16 1.37931034,16 L14.6206897,16 C15.3824617,16 16,15.3824617 16,14.6206897 L16,8 C16,7.54293676 15.629477,7.17241379 15.1724138,7.17241379 L15.1724138,7.17241379 Z"></path>
        </g>
    </g>
</svg>