<svg width="24" height="24" viewBox="0 0 24 24" fill="none" xmlns="http://www.w3.org/2000/svg">
<path d="M22.6755 23.9998C23.4069 23.9998 24 23.4067 24 22.6751V1.3246C24 0.59292 23.407 0 22.6755 0H1.32462C0.592929 0 0 0.59292 0 1.3246V22.6751C0 23.4066 0.592836 23.9998 1.32462 23.9998H22.6755Z" fill="#3B579D"/>
<path d="M16.5655 23.9998V14.7629H19.6612L20.1247 11.1631H16.5655V8.86487C16.5655 7.82264 16.8544 7.1124 18.3467 7.1124L20.25 7.11157V3.89188C19.9208 3.84801 18.791 3.75 17.4765 3.75C14.7324 3.75 12.8536 5.42759 12.8536 8.50836V11.1631H9.75V14.7629H12.8536V23.9998H16.5655Z" fill="white"/>
</svg>
